<?xml version="1.0" encoding="utf-8"?>
<!-- Generator: Adobe Illustrator 23.0.1, SVG Export Plug-In . SVG Version: 6.00 Build 0)  -->
<svg version="1.1" id="图层_1" xmlns="http://www.w3.org/2000/svg" xmlns:xlink="http://www.w3.org/1999/xlink" x="0px" y="0px"
	 viewBox="0 0 137.73 86.62" style="enable-background:new 0 0 137.73 86.62;" xml:space="preserve">
<style type="text/css">
	.st0{fill:#FFFFFF;}
	.st1{fill:#DE3232;}
	.st2{fill:#004888;}
	.st3{fill:#008089;}
	.st4{fill-rule:evenodd;clip-rule:evenodd;fill:#FFFFFF;}
</style>
<g>
	<g>
		<g>
			<path class="st0" d="M130.8,0L97.96,0.09h-0.02l-36.72,0.1h0L26.8,0.29c-4.82,0.02-9.62,3.94-10.72,8.77L0.23,77.91
				c-1.1,4.81,1.89,8.72,6.7,8.71l34.43-0.09h0l35.14-0.1c0.01,0,0.01,0,0.01,0l34.42-0.1c4.82-0.01,9.62-3.94,10.73-8.76
				L137.5,8.72C138.61,3.9,135.61-0.01,130.8,0"/>
		</g>
		<g>
			<g id="XMLID_39_">
				<path id="XMLID_73_" class="st1" d="M30.22,4.03h31.45c4.39,0,7.12,3.58,6.09,7.98L53.11,74.89c-1.03,4.39-5.43,7.97-9.82,7.97
					H11.84c-4.39,0-7.12-3.58-6.1-7.97L20.4,12.02C21.42,7.61,25.81,4.03,30.22,4.03"/>
				<path id="XMLID_72_" class="st2" d="M59.05,4.03h36.16c4.39,0,2.41,3.58,1.38,7.98L81.95,74.89c-1.03,4.39-0.7,7.97-5.1,7.97
					H40.68c-4.4,0-7.11-3.58-6.09-7.97l14.64-62.87C50.26,7.61,54.65,4.03,59.05,4.03"/>
				<path id="XMLID_71_" class="st3" d="M93.78,4.03h31.44c4.39,0,7.13,3.58,6.1,7.98l-14.64,62.87c-1.03,4.39-5.43,7.97-9.83,7.97
					H75.42c-4.41,0-7.13-3.58-6.1-7.97l14.64-62.87C84.99,7.61,89.38,4.03,93.78,4.03"/>
				<path id="XMLID_66_" class="st4" d="M88.52,63.17h2.97l0.86-2.84h-2.96L88.52,63.17z M90.9,55.31l-1.02,3.37
					c0,0,1.13-0.59,1.73-0.76c0.61-0.14,1.54-0.26,1.54-0.26l0.72-2.35H90.9z M92.37,50.45l-0.99,3.24c0,0,1.1-0.5,1.71-0.66
					c0.61-0.16,1.52-0.21,1.52-0.21l0.71-2.36H92.37z M98.93,50.45l-3.83,12.69h1.03l-0.8,2.62H94.3l-0.24,0.81h-3.65l0.25-0.81
					h-7.42l0.75-2.42h0.75l3.89-12.88l0.78-2.6h3.72l-0.39,1.31c0,0,0.99-0.71,1.93-0.95c0.94-0.25,6.33-0.34,6.33-0.34l-0.79,2.59
					H98.93z"/>
				<path id="XMLID_65_" class="st0" d="M100.57,47.87h3.98l0.04,1.49c-0.02,0.25,0.19,0.37,0.65,0.37h0.81l-0.74,2.44h-2.14
					c-1.86,0.14-2.56-0.66-2.52-1.56L100.57,47.87z"/>
				<path id="XMLID_64_" class="st0" d="M101.09,59.46h-3.78l0.65-2.18h4.33l0.62-1.98h-4.27l0.73-2.45h11.89l-0.75,2.45h-3.98
					l-0.63,1.98h4l-0.66,2.18h-4.33l-0.77,0.92h1.75l0.43,2.75c0.05,0.27,0.06,0.45,0.14,0.56c0.09,0.1,0.61,0.14,0.92,0.14h0.53
					l-0.81,2.68h-1.35c-0.21,0-0.52-0.02-0.94-0.04c-0.41-0.03-0.69-0.27-0.97-0.4c-0.25-0.12-0.62-0.42-0.71-0.93l-0.42-2.73
					l-1.97,2.69c-0.63,0.85-1.47,1.5-2.9,1.5H95.1l0.72-2.38h1.06c0.3,0,0.57-0.12,0.77-0.22c0.2-0.09,0.38-0.19,0.58-0.49
					L101.09,59.46z"/>
				<path id="XMLID_63_" class="st0" d="M59.63,53.51h10.02l-0.74,2.39H64.9l-0.62,2.04h4.1l-0.74,2.47h-4.1l-0.99,3.32
					c-0.12,0.36,0.97,0.41,1.37,0.41l2.05-0.29l-0.82,2.73h-4.62c-0.37,0-0.65-0.05-1.06-0.14c-0.39-0.09-0.56-0.27-0.74-0.54
					c-0.16-0.27-0.42-0.49-0.24-1.06l1.32-4.4h-2.28l0.76-2.51h2.29l0.61-2.04h-2.28L59.63,53.51z"/>
				<path id="XMLID_62_" class="st0" d="M66.38,49.21h4.11l-0.75,2.5h-5.62l-0.61,0.53c-0.25,0.25-0.35,0.14-0.69,0.34
					c-0.32,0.16-0.98,0.47-1.85,0.47h-1.8l0.73-2.41h0.54c0.46,0,0.77-0.04,0.93-0.14c0.18-0.11,0.38-0.37,0.6-0.78l1.03-1.87h4.09
					L66.38,49.21z"/>
				<path id="XMLID_58_" class="st4" d="M74.27,53.32c0,0,1.12-1.03,3.04-1.36c0.43-0.08,3.17-0.05,3.17-0.05l0.41-1.37h-5.79
					L74.27,53.32z M79.69,54.37h-5.74l-0.35,1.15h4.97c0.58-0.07,0.71,0.01,0.76-0.02L79.69,54.37z M72.26,47.87h3.5l-0.51,1.77
					c0,0,1.11-0.88,1.88-1.2c0.77-0.28,2.51-0.55,2.51-0.55l5.67-0.03l-1.93,6.43c-0.33,1.1-0.71,1.81-0.95,2.14
					c-0.21,0.33-0.47,0.61-0.96,0.88c-0.48,0.26-0.91,0.4-1.32,0.44c-0.37,0.03-0.95,0.05-1.74,0.06h-5.46l-1.55,5.09
					c-0.14,0.5-0.22,0.74-0.12,0.88c0.08,0.12,0.26,0.26,0.53,0.26l2.41-0.23l-0.82,2.79h-2.7c-0.85,0-1.48-0.02-1.92-0.05
					c-0.42-0.03-0.85,0-1.14-0.23c-0.25-0.22-0.63-0.5-0.62-0.81c0.03-0.27,0.14-0.73,0.32-1.36L72.26,47.87z"/>
				<path id="XMLID_57_" class="st0" d="M82.47,58.25l-0.32,1.55c-0.14,0.48-0.26,0.85-0.62,1.16c-0.38,0.32-0.83,0.66-1.89,0.66
					L77.7,61.7l-0.02,1.74c-0.02,0.49,0.11,0.45,0.19,0.53c0.09,0.09,0.17,0.12,0.26,0.16l0.61-0.04l1.85-0.11l-0.76,2.55H77.7
					c-1.49,0-2.6-0.04-2.96-0.32c-0.36-0.23-0.41-0.51-0.4-1.01l0.14-6.81h3.4l-0.05,1.39h0.82c0.27,0,0.46-0.03,0.58-0.1
					c0.1-0.08,0.18-0.19,0.23-0.36l0.33-1.09H82.47z"/>
				<path id="XMLID_56_" class="st0" d="M33.93,24.12c-0.12,0.55-2.3,10.62-2.31,10.62c-0.47,2.03-0.81,3.49-1.97,4.43
					c-0.66,0.54-1.43,0.8-2.32,0.8c-1.43,0-2.27-0.72-2.41-2.06l-0.02-0.47c0,0,0.43-2.73,0.44-2.74c0,0,2.29-9.18,2.7-10.39
					c0.02-0.07,0.03-0.1,0.03-0.14c-4.46,0.05-5.25,0-5.3-0.06c-0.03,0.08-0.15,0.66-0.15,0.66l-2.34,10.33L20.07,36l-0.38,2.87
					c0,0.85,0.16,1.54,0.5,2.13c1.07,1.87,4.11,2.15,5.82,2.15c2.22,0,4.3-0.47,5.7-1.32c2.44-1.44,3.08-3.7,3.65-5.7l0.26-1.02
					c0,0,2.36-9.54,2.77-10.77c0.01-0.07,0.02-0.1,0.03-0.14C35.2,24.22,34.24,24.18,33.93,24.12"/>
				<path id="XMLID_55_" class="st0" d="M46.99,43.04c-1.59-0.02-2.14-0.02-3.99,0.07l-0.07-0.13c0.16-0.71,0.34-1.4,0.49-2.11
					l0.23-0.97c0.34-1.49,0.67-3.24,0.71-3.77c0.03-0.32,0.14-1.12-0.77-1.12c-0.38,0-0.78,0.19-1.19,0.37
					c-0.22,0.8-0.67,3.04-0.89,4.05c-0.45,2.15-0.48,2.39-0.69,3.46l-0.14,0.14c-1.63-0.02-2.19-0.02-4.07,0.07l-0.09-0.16
					c0.32-1.27,0.63-2.56,0.93-3.84c0.79-3.46,0.97-4.79,1.19-6.54l0.15-0.11c1.82-0.25,2.27-0.31,4.25-0.71l0.17,0.18l-0.3,1.1
					c0.33-0.2,0.66-0.4,1-0.58c0.94-0.45,1.97-0.59,2.54-0.59c0.87,0,1.81,0.24,2.21,1.24c0.38,0.9,0.13,1.99-0.37,4.17l-0.26,1.1
					c-0.5,2.42-0.58,2.86-0.87,4.52L46.99,43.04z"/>
				<path id="XMLID_54_" class="st0" d="M53.41,43.04c-0.95-0.01-1.57-0.02-2.17-0.01c-0.6,0.01-1.18,0.04-2.06,0.08l-0.05-0.08
					l-0.06-0.08c0.25-0.91,0.38-1.23,0.5-1.56c0.12-0.32,0.23-0.65,0.44-1.58c0.28-1.2,0.45-2.05,0.57-2.8
					c0.12-0.72,0.2-1.33,0.29-2.03l0.08-0.06l0.07-0.07c0.95-0.13,1.55-0.22,2.17-0.31c0.62-0.09,1.24-0.22,2.22-0.4l0.04,0.08
					l0.03,0.08c-0.18,0.76-0.37,1.5-0.55,2.26c-0.18,0.76-0.36,1.51-0.53,2.26c-0.35,1.6-0.49,2.19-0.58,2.61
					c-0.08,0.41-0.11,0.63-0.25,1.46l-0.08,0.07L53.41,43.04z"/>
				<path id="XMLID_51_" class="st0" d="M63.48,37.41c-0.08,0.41-0.44,1.93-0.93,2.59c-0.33,0.48-0.74,0.76-1.18,0.76
					c-0.13,0-0.91,0-0.92-1.15c-0.01-0.58,0.11-1.17,0.25-1.81c0.41-1.84,0.91-3.38,2.16-3.38C63.85,34.42,63.91,35.57,63.48,37.41
					 M67.62,37.59c0.56-2.43,0.13-3.57-0.42-4.26c-0.82-1.05-2.28-1.39-3.78-1.39c-0.91,0-3.07,0.09-4.76,1.65
					c-1.21,1.12-1.77,2.65-2.12,4.11c-0.34,1.49-0.73,4.17,1.73,5.16c0.77,0.33,1.86,0.42,2.56,0.42c1.81,0,3.66-0.49,5.04-1.97
					C66.96,40.1,67.45,38.32,67.62,37.59"/>
				<path id="XMLID_50_" class="st0" d="M106.29,43.2c-1.91-0.02-2.46-0.02-4.23,0.06l-0.12-0.14c0.49-1.81,0.96-3.62,1.39-5.46
					c0.55-2.38,0.68-3.39,0.86-4.78l0.14-0.12c1.9-0.27,2.42-0.34,4.4-0.71l0.06,0.17c-0.36,1.5-0.72,2.99-1.07,4.49
					c-0.72,3.14-0.99,4.74-1.27,6.38L106.29,43.2z"/>
				<path id="XMLID_47_" class="st0" d="M103.42,37.63c-0.09,0.39-0.45,1.93-0.94,2.57c-0.33,0.46-1.1,0.75-1.54,0.75
					c-0.12,0-0.9,0-0.93-1.15c-0.01-0.56,0.11-1.16,0.26-1.8c0.42-1.8,0.91-3.34,2.17-3.34C103.42,34.66,103.85,35.78,103.42,37.63
					 M107.19,37.81c0.56-2.42-1.67-0.22-2.03-1.01c-0.55-1.25-0.2-3.77-2.4-4.62c-0.85-0.33-2.84,0.1-4.53,1.65
					c-1.19,1.11-1.77,2.63-2.1,4.08c-0.34,1.46-0.73,4.15,1.72,5.11c0.78,0.33,1.49,0.42,2.19,0.39c2.46-0.13,4.35-3.86,5.73-5.33
					C106.84,36.91,107.03,38.53,107.19,37.81"/>
				<path id="XMLID_46_" class="st0" d="M78.42,43.04c-1.58-0.02-2.12-0.02-3.99,0.07l-0.07-0.13c0.16-0.71,0.33-1.4,0.5-2.11
					l0.23-0.97c0.34-1.49,0.67-3.24,0.71-3.77c0.03-0.32,0.14-1.12-0.76-1.12c-0.39,0-0.79,0.19-1.19,0.37
					c-0.22,0.8-0.68,3.04-0.9,4.05c-0.44,2.15-0.48,2.39-0.68,3.46l-0.13,0.14c-1.63-0.02-2.19-0.02-4.07,0.07l-0.08-0.16
					c0.31-1.27,0.62-2.56,0.92-3.84c0.79-3.46,0.97-4.79,1.19-6.54l0.14-0.11c1.82-0.25,2.27-0.31,4.26-0.71l0.15,0.18l-0.29,1.1
					c0.32-0.2,0.66-0.4,1-0.58c0.92-0.45,1.97-0.59,2.53-0.59c0.86,0,1.82,0.24,2.22,1.24c0.37,0.9,0.12,1.99-0.38,4.17l-0.25,1.1
					c-0.51,2.42-0.59,2.86-0.87,4.52L78.42,43.04z"/>
				<path id="XMLID_43_" class="st0" d="M92.13,24.1l-1.31,0.02c-3.42,0.04-4.79,0.02-5.36-0.05c-0.05,0.25-0.14,0.71-0.14,0.71
					s-1.22,5.67-1.22,5.68c0,0-2.93,12.07-3.07,12.64c2.99-0.03,4.21-0.03,4.72,0.02c0.12-0.57,0.81-3.93,0.81-3.93
					s0.6-2.48,0.63-2.57c0,0,0.18-0.26,0.37-0.35h0.28c2.57,0,5.49,0,7.75-1.68c1.55-1.15,2.61-2.84,3.09-4.9
					c0.12-0.51,0.21-1.12,0.21-1.71c0-0.79-0.16-1.57-0.62-2.18C97.11,24.14,94.81,24.12,92.13,24.1 M93.84,30.01
					c-0.28,1.26-1.09,2.32-2.15,2.83c-0.87,0.44-1.93,0.48-3.02,0.48h-0.71l0.05-0.29c0,0,1.31-5.66,1.3-5.65l0.04-0.28l0.03-0.23
					l0.52,0.06c0,0,2.69,0.23,2.75,0.24C93.71,27.56,94.15,28.62,93.84,30.01"/>
				<path id="XMLID_42_" class="st0" d="M121.91,32.03l-0.15-0.17c-1.95,0.39-2.3,0.46-4.1,0.69l-0.13,0.14
					c-0.01,0.02-0.01,0.06-0.02,0.08l-0.01-0.02c-1.34,3.09-1.29,2.42-2.38,4.85c-0.01-0.11-0.01-0.19-0.02-0.3l-0.27-5.26
					l-0.17-0.17c-2.04,0.39-2.09,0.46-3.98,0.69l-0.15,0.14c-0.02,0.06-0.02,0.14-0.03,0.21l0.01,0.03
					c0.23,1.21,0.18,0.93,0.42,2.84c0.11,0.94,0.25,1.88,0.36,2.8c0.19,1.54,0.3,2.3,0.52,4.66c-1.27,2.11-1.58,2.91-2.79,4.76
					l0.06,0.17c1.85-0.06,2.27-0.06,3.64-0.06l0.3-0.34C114.06,45.52,121.91,32.03,121.91,32.03"/>
				<path id="XMLID_41_" class="st0" d="M55.15,33.33c1.04-0.73,1.18-1.74,0.3-2.25c-0.9-0.53-2.46-0.36-3.51,0.37
					c-1.06,0.72-1.18,1.73-0.29,2.26C52.52,34.22,54.1,34.06,55.15,33.33"/>
				<path id="XMLID_40_" class="st0" d="M112.88,47.92l-1.54,2.63c-0.48,0.9-1.38,1.57-2.82,1.58l-2.45-0.04l0.71-2.37h0.48
					c0.25,0,0.43-0.02,0.58-0.08c0.12-0.04,0.21-0.14,0.31-0.28l0.9-1.43H112.88z"/>
			</g>
		</g>
	</g>
</g>
</svg>
