<?xml version="1.0" encoding="UTF-8"?>
<svg width="128px" height="128px" viewBox="0 0 128 128" version="1.1" xmlns="http://www.w3.org/2000/svg" xmlns:xlink="http://www.w3.org/1999/xlink">
    <!-- Generator: Sketch 54 (76480) - https://sketchapp.com -->
    <title>Group-Copy-9@3x</title>
    <desc>Created with Sketch.</desc>
    <defs>
        <linearGradient x1="50.1209596%" y1="100.112033%" x2="50.1209596%" y2="0.103681414%" id="linearGradient-1">
            <stop stop-color="#4285F4" offset="0%"></stop>
            <stop stop-color="#4EC8FA" offset="99.82%"></stop>
        </linearGradient>
        <linearGradient x1="49.287931%" y1="100.870968%" x2="49.287931%" y2="-0.0311827957%" id="linearGradient-2">
            <stop stop-color="#4285F4" offset="0%"></stop>
            <stop stop-color="#4EC8FA" offset="99.82%"></stop>
        </linearGradient>
        <linearGradient x1="50.2591256%" y1="100.070402%" x2="50.2591256%" y2="0.147239437%" id="linearGradient-3">
            <stop stop-color="#4285F4" offset="0%"></stop>
            <stop stop-color="#4EC8FA" offset="99.82%"></stop>
        </linearGradient>
    </defs>
    <g id="页面1" stroke="none" stroke-width="1" fill="none" fill-rule="evenodd">
        <g id="Group-Copy-9" fill-rule="nonzero">
            <rect id="Rectangle-90-Copy-2" fill="#FFFFFF" x="0" y="0" width="128" height="128" rx="31"></rect>
            <path d="M76.7878788,47.5667443 L71.6060606,44.5811035 C69.5909091,43.4437166 67,44.1545834 65.8484848,46.1450106 C64.6969697,48.1354378 65.4166667,50.6945585 67.4318182,51.8319455 L72.7575758,54.8175863 L73.0454545,54.9597596 C77.6515152,57.2345336 77.7954545,58.3719206 77.7954545,64.2010288 L77.7954545,84.2474742 L57.6439394,73.3001246 L57.5,73.1579512 C52.8939394,70.8831773 52.75,69.7457903 52.75,63.9166821 L52.75,43.3015432 C54.6212121,44.01241 56.9242424,43.3015432 57.9318182,41.5954627 C59.0833333,39.6050355 58.3636364,37.0459148 56.3484848,35.9085279 L50.5909091,32.496367 L50.3030303,32.3541936 C46.1287879,30.221593 41.2348485,30.6481131 36.7727273,33.3494072 C32.0227273,36.1928746 29,41.1689426 29,46.0028372 L29,72.8736045 C29,80.1244464 29.719697,85.2426878 38.3560606,89.5078889 L65.5606061,104.578266 L65.7045455,104.72044 C67.4318182,105.57348 69.4469697,106 71.3181818,106 C73.7651515,106 76.0681818,105.289133 78.3712121,104.009573 C82.9772727,101.166105 86,96.1900374 86,91.071796 L86,64.2010288 C86,56.9501869 85.280303,51.9741188 76.7878788,47.5667443 Z M73.9090909,96.9009042 C72.9015152,97.4695977 71.3181818,98.1804646 69.5909091,97.3274243 L42.530303,82.257047 L42.3863636,82.1148736 C37.780303,79.8400997 37.6363636,78.7027127 37.6363636,72.8736045 L37.6363636,46.0028372 C37.6363636,44.01241 39.219697,41.7376361 41.3787879,40.4580758 C41.9545455,40.173729 42.9621212,39.6050355 44.2575758,39.4628622 L44.2575758,63.9166821 C44.2575758,71.167524 44.9772727,76.2857654 53.6136364,80.5509665 L76.9318182,93.4887433 C76.3560606,94.910477 75.2045455,96.1900374 73.9090909,96.9009042 Z" id="Shape" fill="url(#linearGradient-1)"></path>
            <path d="M96.5,81 C94.0172414,81 92,82.9569892 92,85.3655914 L92,90.6344086 C92,93.0430108 94.0172414,95 96.5,95 C98.9827586,95 101,93.0430108 101,90.6344086 L101,85.3655914 C101,82.9569892 98.9827586,81 96.5,81 Z" id="Shape" fill="url(#linearGradient-2)"></path>
            <path d="M91.9859782,38.6686014 L65.9946583,23.5055671 L65.7090394,23.3625196 C61.5675654,21.2168071 56.7120441,21.6459496 52.2849512,24.363852 C51.4280945,24.936042 50.7140472,25.508232 50,26.080422 C51.9993323,26.080422 53.8558551,26.5095644 55.712378,27.3678494 L55.9979969,27.5108969 L61.424756,30.6579418 C61.5675654,30.6579418 61.7103749,30.8009893 61.8531843,30.8009893 L87.7016947,45.9640236 L87.9873136,46.1070711 C92.557216,48.395831 92.7000254,49.540211 92.7000254,55.4051582 L92.7000254,68.8516227 C92.7000254,71.1403826 94.5565483,73 96.8414994,73 C99.1264506,73 100.982973,71.1403826 100.982973,68.8516227 L100.982973,55.4051582 C101.125783,48.109736 100.554545,43.1030737 91.9859782,38.6686014 Z" id="Shape" fill="url(#linearGradient-3)"></path>
        </g>
    </g>
</svg>